<svg width="30" height="36" viewBox="0 0 30 36" fill="none" xmlns="http://www.w3.org/2000/svg">
<path d="M26.25 36C27.2446 36 28.1984 35.6207 28.9016 34.9456C29.6049 34.2705 30 33.3548 30 32.4V18.8225C30 13.6972 27.91 8.79358 24.2127 5.24418C20.7074 1.87912 16.0366 0 11.1775 0H3.75C2.75544 0 1.80161 0.379284 1.09835 1.05442C0.395088 1.72955 0 2.64522 0 3.6V32.4C0 33.3548 0.395088 34.2705 1.09835 34.9456C1.80161 35.6207 2.75544 36 3.75 36H26.25ZM16.875 9.9104C16.875 7.54059 19.7177 6.32898 21.4272 7.97015C23.175 9.64797 21.9873 12.6 19.5646 12.6C18.0792 12.6 16.875 11.3958 16.875 9.9104ZM5.625 12.6C5.625 11.6059 6.43089 10.8 7.425 10.8H9.45C10.4441 10.8 11.25 11.6059 11.25 12.6C11.25 13.5941 10.4441 14.4 9.45 14.4H7.425C6.43089 14.4 5.625 13.5941 5.625 12.6ZM5.625 19.8C5.625 18.8059 6.43089 18 7.425 18H22.575C23.5691 18 24.375 18.8059 24.375 19.8C24.375 20.7941 23.5691 21.6 22.575 21.6H7.425C6.43089 21.6 5.625 20.7941 5.625 19.8ZM5.625 27C5.625 26.0059 6.43089 25.2 7.425 25.2H22.575C23.5691 25.2 24.375 26.0059 24.375 27C24.375 27.9941 23.5691 28.8 22.575 28.8H7.425C6.43089 28.8 5.625 27.9941 5.625 27Z" fill="#5CA1E8"/>
</svg>
