<svg width="142" height="142" viewBox="0 0 142 142" fill="none" xmlns="http://www.w3.org/2000/svg">
<path fill-rule="evenodd" clip-rule="evenodd" d="M47.3333 23.6673H94.6667V11.834H106.5V23.6673H112.417C115.555 23.6673 118.565 24.914 120.784 27.1332C123.003 29.3524 124.25 32.3623 124.25 35.5007V118.334C124.25 121.472 123.003 124.482 120.784 126.701C118.565 128.921 115.555 130.167 112.417 130.167H29.5833C26.4449 130.167 23.4351 128.921 21.2159 126.701C18.9967 124.482 17.75 121.472 17.75 118.334V35.5007C17.75 32.3623 18.9967 29.3524 21.2159 27.1332C23.4351 24.914 26.4449 23.6673 29.5833 23.6673H35.5V11.834H47.3333V23.6673ZM29.5833 47.334V118.334H112.417V47.334H29.5833ZM41.4167 65.084H53.25V76.9173H41.4167V65.084ZM65.0833 65.084H76.9167V76.9173H65.0833V65.084ZM88.75 65.084H100.583V76.9173H88.75V65.084ZM88.75 88.7507H100.583V100.584H88.75V88.7507ZM65.0833 88.7507H76.9167V100.584H65.0833V88.7507ZM41.4167 88.7507H53.25V100.584H41.4167V88.7507Z" fill="#717171"/>
</svg>
