<svg width="33" height="27" viewBox="0 0 33 27" fill="none" xmlns="http://www.w3.org/2000/svg">
<path d="M1 2.55C1 2.13891 1.1633 1.74467 1.45398 1.45398C1.74467 1.1633 2.13891 1 2.55 1H30.45C30.8611 1 31.2553 1.1633 31.546 1.45398C31.8367 1.74467 32 2.13891 32 2.55V24.25C32 24.6611 31.8367 25.0553 31.546 25.346C31.2553 25.6367 30.8611 25.8 30.45 25.8H2.55C2.13891 25.8 1.74467 25.6367 1.45398 25.346C1.1633 25.0553 1 24.6611 1 24.25V2.55Z" stroke="#6A7CF3" stroke-width="2" stroke-linejoin="round"/>
<path d="M25.8 1V25.8M7.2 1V25.8M27.35 8.75H32M27.35 18.05H32M1 8.75H5.65M1 7.2V10.3M4.875 1H9.525M4.875 25.8H9.525M23.475 1H28.125M23.475 25.8H28.125M1 18.05H5.65M1 16.5V19.6M32 16.5V19.6M32 7.2V10.3" stroke="#6A7CF3" stroke-width="2" stroke-linecap="round" stroke-linejoin="round"/>
<path d="M14.1758 9.52539L20.3758 13.4004L14.1758 17.2754V9.52539Z" stroke="#6A7CF3" stroke-width="2" stroke-linejoin="round"/>
</svg>
