<svg width="30" height="31" viewBox="0 0 30 31" fill="none" xmlns="http://www.w3.org/2000/svg">
<g clip-path="url(#clip0_3424_294)">
<path d="M15.9375 6.45898H8.4375C8.18886 6.45898 7.9504 6.56105 7.77459 6.74272C7.59877 6.9244 7.5 7.17081 7.5 7.42773C7.5 7.68466 7.59877 7.93107 7.77459 8.11274C7.9504 8.29442 8.18886 8.39648 8.4375 8.39648H15.9375C16.1861 8.39648 16.4246 8.29442 16.6004 8.11274C16.7762 7.93107 16.875 7.68466 16.875 7.42773C16.875 7.17081 16.7762 6.9244 16.6004 6.74272C16.4246 6.56105 16.1861 6.45898 15.9375 6.45898ZM16.875 11.9486C16.8718 11.6927 16.772 11.4482 16.5968 11.2673C16.4217 11.0863 16.1851 10.9832 15.9375 10.9798H5.9375C5.68886 10.9798 5.4504 11.0819 5.27459 11.2636C5.09877 11.4452 5 11.6916 5 11.9486C5 12.2055 5.09877 12.4519 5.27459 12.6336C5.4504 12.8153 5.68886 12.9173 5.9375 12.9173H15.9375C16.1851 12.914 16.4217 12.8108 16.5968 12.6299C16.772 12.4489 16.8718 12.2045 16.875 11.9486ZM5.9375 15.5007C5.68886 15.5007 5.4504 15.6027 5.27459 15.7844C5.09877 15.9661 5 16.2125 5 16.4694C5 16.7263 5.09877 16.9727 5.27459 17.1544C5.4504 17.3361 5.68886 17.4382 5.9375 17.4382H12.8125C13.0611 17.4382 13.2996 17.3361 13.4754 17.1544C13.6512 16.9727 13.75 16.7263 13.75 16.4694C13.75 16.2125 13.6512 15.9661 13.4754 15.7844C13.2996 15.6027 13.0611 15.5007 12.8125 15.5007H5.9375Z" fill="#737373"/>
<path d="M14.125 22.7979C14.1006 22.7402 14.0604 22.691 14.0093 22.6566C13.9582 22.6222 13.8985 22.6039 13.8375 22.6042H3.125C2.95924 22.6042 2.80027 22.5361 2.68306 22.415C2.56585 22.2939 2.5 22.1296 2.5 21.9583V3.22917C2.5 3.05788 2.56585 2.89361 2.68306 2.77249C2.80027 2.65138 2.95924 2.58333 3.125 2.58333H19.375C19.5408 2.58333 19.6997 2.65138 19.8169 2.77249C19.9342 2.89361 20 3.05788 20 3.22917V16.2362C19.9998 16.2993 20.0174 16.361 20.0507 16.4138C20.0841 16.4666 20.1316 16.5081 20.1875 16.5333C20.2456 16.5589 20.3097 16.5664 20.3718 16.5549C20.434 16.5434 20.4915 16.5135 20.5375 16.4687L22.1375 14.8154C22.3659 14.5679 22.4954 14.2403 22.5 13.8983V2.58333C22.5 1.89819 22.2366 1.24111 21.7678 0.756641C21.2989 0.272172 20.663 0 20 0L2.5 0C1.83696 0 1.20107 0.272172 0.732233 0.756641C0.263392 1.24111 0 1.89819 0 2.58333L0 22.6042C0 23.2893 0.263392 23.9464 0.732233 24.4309C1.20107 24.9153 1.83696 25.1875 2.5 25.1875H12.3375C12.4711 25.1883 12.6015 25.1449 12.7095 25.0635C12.8175 24.9821 12.8974 24.8672 12.9375 24.7354C13.0525 24.3319 13.268 23.9667 13.5625 23.6762L14.0625 23.1596C14.1058 23.1121 14.1348 23.0526 14.1459 22.9884C14.157 22.9241 14.1497 22.858 14.125 22.7979ZM15.075 26.0012C15.0348 25.9606 14.9846 25.9319 14.9299 25.9182C14.8752 25.9046 14.8179 25.9064 14.7641 25.9236C14.7103 25.9408 14.662 25.9727 14.6244 26.016C14.5867 26.0592 14.561 26.1121 14.55 26.1692L13.75 30.225C13.7318 30.3293 13.7382 30.4366 13.7686 30.5378C13.7991 30.639 13.8527 30.7311 13.925 30.8062C13.9808 30.8683 14.0486 30.9176 14.1239 30.951C14.1993 30.9843 14.2805 31.001 14.3625 31H14.4875L18.4125 30.1863C18.4681 30.1764 18.5198 30.1506 18.5618 30.1117C18.6038 30.0729 18.6344 30.0226 18.65 29.9667C18.67 29.9112 18.6736 29.8509 18.6602 29.7934C18.6469 29.7358 18.6172 29.6837 18.575 29.6438L15.075 26.0012ZM29.0375 15.2029C28.7343 14.8881 28.374 14.6384 27.9771 14.4679C27.5803 14.2975 27.1548 14.2097 26.725 14.2097C26.2952 14.2097 25.8697 14.2975 25.4729 14.4679C25.076 14.6384 24.7157 14.8881 24.4125 15.2029L16.25 23.5987C16.1902 23.6567 16.1426 23.7268 16.11 23.8045C16.0774 23.8823 16.0606 23.9661 16.0606 24.0508C16.0606 24.1356 16.0774 24.2194 16.11 24.2971C16.1426 24.3749 16.1902 24.4449 16.25 24.5029L20 28.3779C20.0561 28.4397 20.1239 28.4889 20.1991 28.5226C20.2744 28.5563 20.3555 28.5736 20.4375 28.5736C20.5195 28.5736 20.6006 28.5563 20.6759 28.5226C20.7511 28.4889 20.8189 28.4397 20.875 28.3779L29.0125 19.9821C29.3188 19.6705 29.5624 19.2995 29.7295 18.8904C29.8966 18.4812 29.9838 18.042 29.9862 17.5979C29.9885 17.1538 29.9059 16.7136 29.7431 16.3026C29.5803 15.8916 29.3405 15.5179 29.0375 15.2029Z" fill="#737373"/>
</g>
<defs>
<clipPath id="clip0_3424_294">
<rect width="30" height="31" fill="white"/>
</clipPath>
</defs>
</svg>
