<svg width="37" height="37" viewBox="0 0 37 37" fill="none" xmlns="http://www.w3.org/2000/svg">
<path d="M15.7583 21.2417L11.5479 17.0313C11.1889 16.6722 10.7319 16.4927 10.1771 16.4927C9.62222 16.4927 9.16528 16.6722 8.80625 17.0313C8.44722 17.3903 8.26771 17.8472 8.26771 18.4021C8.26771 18.9569 8.44722 19.4139 8.80625 19.7729L14.3875 25.3542C14.7792 25.7458 15.2361 25.9417 15.7583 25.9417C16.2806 25.9417 16.7375 25.7458 17.1292 25.3542L28.1938 14.2896C28.5528 13.9306 28.7323 13.4736 28.7323 12.9187C28.7323 12.3639 28.5528 11.9069 28.1938 11.5479C27.8347 11.1889 27.3778 11.0094 26.8229 11.0094C26.2681 11.0094 25.8111 11.1889 25.4521 11.5479L15.7583 21.2417ZM4.79167 36.125C3.71458 36.125 2.79286 35.7418 2.0265 34.9755C1.26014 34.2091 0.876306 33.2867 0.875 32.2083V4.79167C0.875 3.71458 1.25883 2.79286 2.0265 2.0265C2.79417 1.26014 3.71589 0.876306 4.79167 0.875H32.2083C33.2854 0.875 34.2078 1.25883 34.9755 2.0265C35.7431 2.79417 36.1263 3.71589 36.125 4.79167V32.2083C36.125 33.2854 35.7418 34.2078 34.9755 34.9755C34.2091 35.7431 33.2867 36.1263 32.2083 36.125H4.79167Z" fill="#5CA1E8"/>
</svg>
