<svg width="136" height="136" viewBox="0 0 136 136" fill="none" xmlns="http://www.w3.org/2000/svg">
<path d="M19.8333 39.6666C19.8333 32.1521 22.8184 24.9454 28.132 19.6319C33.4455 14.3184 40.6522 11.3333 48.1667 11.3333C55.6811 11.3333 62.8878 14.3184 68.2014 19.6319C73.5149 24.9454 76.5 32.1521 76.5 39.6666C76.5 47.1811 73.5149 54.3877 68.2014 59.7013C62.8878 65.0148 55.6811 67.9999 48.1667 67.9999C40.6522 67.9999 33.4455 65.0148 28.132 59.7013C22.8184 54.3877 19.8333 47.1811 19.8333 39.6666ZM28.3333 79.3333C20.8189 79.3333 13.6122 82.3184 8.29864 87.6319C2.98511 92.9454 0 100.152 0 107.667L0 119H96.3333V107.667C96.3333 100.152 93.3482 92.9454 88.0347 87.6319C82.7212 82.3184 75.5145 79.3333 68 79.3333H28.3333ZM136 119H107.667V107.667C107.667 96.5656 103.111 86.5299 95.7667 79.3333H107.667C111.387 79.3333 115.072 80.0661 118.509 81.49C121.947 82.9139 125.07 85.0009 127.701 87.6319C130.332 90.2629 132.419 93.3863 133.843 96.8239C135.267 100.261 136 103.946 136 107.667V119ZM87.8333 67.9999C84.3743 68.0015 80.9441 67.3696 77.7127 66.1356C84.2442 58.8682 87.85 49.4377 87.8333 39.6666C87.8485 29.8947 84.2406 20.4641 77.707 13.1976C81.5889 11.7152 85.7494 11.1048 89.8935 11.4096C94.0377 11.7145 98.0641 12.9271 101.687 14.9616C105.31 16.9961 108.442 19.8027 110.859 23.1824C113.277 26.5621 114.922 30.4322 115.677 34.5183C116.432 38.6045 116.279 42.8067 115.228 46.8272C114.178 50.8476 112.257 54.5879 109.6 57.7828C106.943 60.9778 103.616 63.5492 99.8541 65.3149C96.0926 67.0805 91.9887 67.9972 87.8333 67.9999Z" fill="#5CA1E8"/>
</svg>
