<svg width="104" height="104" viewBox="0 0 104 104" fill="none" xmlns="http://www.w3.org/2000/svg">
<g clip-path="url(#clip0_3447_231)">
<path d="M52 0C23.2856 0 0 23.2856 0 52C0 80.7144 23.2856 104 52 104C80.7144 104 104 80.7144 104 52C104 23.2856 80.7144 0 52 0ZM52 95.1808C43.8372 95.1776 35.8424 92.861 28.9424 88.4996C22.0424 84.1381 16.5198 77.9105 13.0148 70.5384C9.50973 63.1664 8.16579 54.952 9.13875 46.8473C10.1117 38.7427 13.3617 31.0798 18.512 24.7468L79.2532 85.4828C71.5619 91.7674 61.9324 95.1907 52 95.1808ZM85.488 79.2584L24.7468 18.5172C33.0411 11.8085 43.5249 8.40702 54.178 8.96837C64.831 9.52973 74.8993 14.0141 82.4426 21.5574C89.9859 29.1007 94.4703 39.169 95.0316 49.822C95.593 60.4751 92.1915 70.9589 85.4828 79.2532" fill="#EE6D6D"/>
</g>
<defs>
<clipPath id="clip0_3447_231">
<rect width="104" height="104" fill="white"/>
</clipPath>
</defs>
</svg>
