<svg width="40" height="35" viewBox="0 0 40 35" fill="none" xmlns="http://www.w3.org/2000/svg">
<path d="M36.6667 0H2.44444C1.79614 0 1.17438 0.257539 0.715961 0.715961C0.257539 1.17438 0 1.79614 0 2.44444V31.7778C0 32.4261 0.257539 33.0478 0.715961 33.5063C1.17438 33.9647 1.79614 34.2222 2.44444 34.2222H36.6667C37.315 34.2222 37.9367 33.9647 38.3952 33.5063C38.8536 33.0478 39.1111 32.4261 39.1111 31.7778V2.44444C39.1111 1.79614 38.8536 1.17438 38.3952 0.715961C37.9367 0.257539 37.315 0 36.6667 0ZM8.45778 4.88889C9.18298 4.88889 9.89189 5.10394 10.4949 5.50683C11.0978 5.90973 11.5678 6.48239 11.8453 7.15238C12.1229 7.82238 12.1955 8.55962 12.054 9.27089C11.9125 9.98215 11.5633 10.6355 11.0505 11.1483C10.5377 11.6611 9.88437 12.0103 9.17311 12.1518C8.46185 12.2932 7.7246 12.2206 7.05461 11.9431C6.38461 11.6656 5.81195 11.1956 5.40906 10.5926C5.00616 9.98967 4.79111 9.28075 4.79111 8.55556C4.79111 7.58309 5.17742 6.65046 5.86505 5.96283C6.55269 5.2752 7.48532 4.88889 8.45778 4.88889ZM6.89556 28.1111C5.7873 28.1111 4.88889 27.2127 4.88889 26.1044V24.558C4.88889 23.6238 5.2568 22.7272 5.91299 22.0622L12.2222 15.6689C12.4512 15.4412 12.761 15.3135 13.0839 15.3135C13.4068 15.3135 13.7166 15.4412 13.9456 15.6689C15.6868 17.3698 15.7004 20.1663 13.9759 21.8841L8.3117 27.5261C7.93561 27.9008 7.4264 28.1111 6.89556 28.1111ZM34.2222 23.0812C34.2222 25.8592 31.9703 28.1111 29.1923 28.1111H21.9518C17.978 28.1111 15.9879 23.3066 18.7978 20.4967L25.3978 13.8967C25.6268 13.669 25.9366 13.5413 26.2594 13.5413C26.5823 13.5413 26.8921 13.669 27.1211 13.8967L32.749 19.5246C33.6923 20.4678 34.2222 21.7472 34.2222 23.0812Z" fill="#5CA1E8"/>
</svg>
