<svg width="24" height="24" viewBox="0 0 24 24" fill="none" xmlns="http://www.w3.org/2000/svg">
<path d="M4 4V3H3V4H4ZM11.293 12.707C11.4816 12.8892 11.7342 12.99 11.9964 12.9877C12.2586 12.9854 12.5094 12.8802 12.6948 12.6948C12.8802 12.5094 12.9854 12.2586 12.9877 11.9964C12.99 11.7342 12.8892 11.4816 12.707 11.293L11.293 12.707ZM5 10V4H3V10H5ZM4 5H10V3H4V5ZM3.293 4.707L11.293 12.707L12.707 11.293L4.707 3.293L3.293 4.707Z" fill="#3C3C3C"/>
<path d="M4 20.0004V21.0004H3V20.0004H4ZM11.293 11.2934C11.4816 11.1112 11.7342 11.0105 11.9964 11.0127C12.2586 11.015 12.5094 11.1202 12.6948 11.3056C12.8802 11.491 12.9854 11.7418 12.9877 12.004C12.99 12.2662 12.8892 12.5188 12.707 12.7074L11.293 11.2934ZM5 14.0004V20.0004H3V14.0004H5ZM4 19.0004H10V21.0004H4V19.0004ZM3.293 19.2934L11.293 11.2934L12.707 12.7074L4.707 20.7074L3.293 19.2934Z" fill="#3C3C3C"/>
<path d="M19.9994 4V3H20.9994V4H19.9994ZM12.7064 12.707C12.5178 12.8892 12.2652 12.99 12.003 12.9877C11.7408 12.9854 11.49 12.8802 11.3046 12.6948C11.1192 12.5094 11.014 12.2586 11.0118 11.9964C11.0095 11.7342 11.1103 11.4816 11.2924 11.293L12.7064 12.707ZM18.9994 10V4H20.9994V10H18.9994ZM19.9994 5H13.9994V3H19.9994V5ZM20.7064 4.707L12.7064 12.707L11.2924 11.293L19.2924 3.293L20.7064 4.707Z" fill="#3C3C3C"/>
<path d="M19.9994 20.0004V21.0004H20.9994V20.0004H19.9994ZM12.7064 11.2934C12.5178 11.1112 12.2652 11.0105 12.003 11.0127C11.7408 11.015 11.49 11.1202 11.3046 11.3056C11.1192 11.491 11.014 11.7418 11.0118 12.004C11.0095 12.2662 11.1103 12.5188 11.2924 12.7074L12.7064 11.2934ZM18.9994 14.0004V20.0004H20.9994V14.0004H18.9994ZM19.9994 19.0004H13.9994V21.0004H19.9994V19.0004ZM20.7064 19.2934L12.7064 11.2934L11.2924 12.7074L19.2924 20.7074L20.7064 19.2934Z" fill="#3C3C3C"/>
</svg>
