<svg width="24" height="24" viewBox="0 0 24 24" fill="none" xmlns="http://www.w3.org/2000/svg">
<path d="M16.25 3.25C17.6106 3.25 18.8654 3.66349 19.7822 4.54785V4.54883C20.7 5.43553 21.25 6.76739 21.25 8.54688C21.25 9.82343 20.801 11.1253 20.1152 12.3691L19.8076 12.8984C19.0577 14.1268 18.0912 15.3019 17.1025 16.3486L16.6787 16.7891C15.3905 18.0932 14.0096 19.3024 12.5469 20.4072L12.4082 20.2109L12 20.5L11.5918 20.2109L11.4541 20.4043C9.99138 19.3002 8.60886 18.0927 7.32031 16.7891H7.31934C6.18704 15.6359 5.04894 14.3015 4.19238 12.8984C3.33713 11.4963 2.75 10.0055 2.75 8.54688C2.75006 5.63488 4.97544 3.25 7.75 3.25C9.30667 3.25 10.6897 4.00136 11.6055 5.1748L12 5.67969L12.3945 5.1748C13.3103 4.00132 14.6924 3.25 16.25 3.25Z" fill="#FE6C6C" stroke="#FE6C6C"/>
</svg>
