<svg width="20" height="20" viewBox="0 0 20 20" fill="none" xmlns="http://www.w3.org/2000/svg">
<path d="M3.33464 16.6668C2.8763 16.6668 2.48408 16.5038 2.15797 16.1777C1.83186 15.8516 1.66852 15.4591 1.66797 15.0002V5.00016C1.66797 4.54183 1.8313 4.14961 2.15797 3.8235C2.48464 3.49738 2.87686 3.33405 3.33464 3.3335H16.668C17.1263 3.3335 17.5188 3.49683 17.8455 3.8235C18.1721 4.15016 18.3352 4.54238 18.3346 5.00016V15.0002C18.3346 15.4585 18.1716 15.851 17.8455 16.1777C17.5194 16.5043 17.1269 16.6674 16.668 16.6668H3.33464ZM10.0013 10.8335L3.33464 6.66683V15.0002H16.668V6.66683L10.0013 10.8335ZM10.0013 9.16683L16.668 5.00016H3.33464L10.0013 9.16683ZM3.33464 6.66683V5.00016V15.0002V6.66683Z" fill="#757575"/>
</svg>
