<svg width="16" height="16" viewBox="0 0 16 16" fill="none" xmlns="http://www.w3.org/2000/svg">
<path fill-rule="evenodd" clip-rule="evenodd" d="M8 16C10.1217 16 12.1566 15.1571 13.6569 13.6569C15.1571 12.1566 16 10.1217 16 8C16 5.87827 15.1571 3.84344 13.6569 2.34315C12.1566 0.842855 10.1217 0 8 0C5.87827 0 3.84344 0.842855 2.34315 2.34315C0.842855 3.84344 0 5.87827 0 8C0 10.1217 0.842855 12.1566 2.34315 13.6569C3.84344 15.1571 5.87827 16 8 16ZM9 5C9 5.26522 8.89464 5.51957 8.70711 5.70711C8.51957 5.89464 8.26522 6 8 6C7.73478 6 7.48043 5.89464 7.29289 5.70711C7.10536 5.51957 7 5.26522 7 5C7 4.73478 7.10536 4.48043 7.29289 4.29289C7.48043 4.10536 7.73478 4 8 4C8.26522 4 8.51957 4.10536 8.70711 4.29289C8.89464 4.48043 9 4.73478 9 5ZM7 7C6.80109 7 6.61032 7.07902 6.46967 7.21967C6.32902 7.36032 6.25 7.55109 6.25 7.75C6.25 7.94891 6.32902 8.13968 6.46967 8.28033C6.61032 8.42098 6.80109 8.5 7 8.5H7.25V10.5H6.25C6.05109 10.5 5.86032 10.579 5.71967 10.7197C5.57902 10.8603 5.5 11.0511 5.5 11.25C5.5 11.4489 5.57902 11.6397 5.71967 11.7803C5.86032 11.921 6.05109 12 6.25 12H9.75C9.94891 12 10.1397 11.921 10.2803 11.7803C10.421 11.6397 10.5 11.4489 10.5 11.25C10.5 11.0511 10.421 10.8603 10.2803 10.7197C10.1397 10.579 9.94891 10.5 9.75 10.5H8.75V7H7Z" fill="#2969E0"/>
</svg>
