<svg width="38" height="30" viewBox="0 0 38 30" fill="none" xmlns="http://www.w3.org/2000/svg">
<path d="M3.8 30C2.755 30 1.86073 29.6331 1.1172 28.8994C0.373667 28.1656 0.00126667 27.2825 0 26.25V3.75C0 2.71875 0.3724 1.83625 1.1172 1.1025C1.862 0.36875 2.75627 0.00125 3.8 0H34.2C35.245 0 36.1399 0.3675 36.8847 1.1025C37.6295 1.8375 38.0013 2.72 38 3.75V26.25C38 27.2812 37.6282 28.1644 36.8847 28.8994C36.1412 29.6344 35.2463 30.0012 34.2 30H3.8ZM19 16.5469C19.1583 16.5469 19.3249 16.5231 19.4997 16.4756C19.6745 16.4281 19.8404 16.3581 19.9975 16.2656L33.44 7.96875C33.6933 7.8125 33.8833 7.6175 34.01 7.38375C34.1367 7.15 34.2 6.89187 34.2 6.60937C34.2 5.98437 33.9308 5.51562 33.3925 5.20312C32.8542 4.89062 32.3 4.90625 31.73 5.25L19 13.125L6.27 5.25C5.7 4.90625 5.14583 4.89875 4.6075 5.2275C4.06917 5.55625 3.8 6.01687 3.8 6.60937C3.8 6.92187 3.86333 7.19562 3.99 7.43062C4.11667 7.66562 4.30667 7.845 4.56 7.96875L18.0025 16.2656C18.1608 16.3594 18.3274 16.43 18.5022 16.4775C18.677 16.525 18.8429 16.5481 19 16.5469Z" fill="#5CA1E8"/>
</svg>
