<svg width="26" height="32" viewBox="0 0 26 32" fill="none" xmlns="http://www.w3.org/2000/svg">
<path d="M22.2441 31.447C23.0729 31.447 23.8678 31.1232 24.4538 30.5469C25.0399 29.9705 25.3691 29.1888 25.3691 28.3738V9.93449L15.9941 0.714844H3.49414C2.66534 0.714844 1.87048 1.03863 1.28443 1.61497C0.698381 2.19131 0.369141 2.97299 0.369141 3.78806V28.3738C0.369141 29.1888 0.698381 29.9705 1.28443 30.5469C1.87048 31.1232 2.66534 31.447 3.49414 31.447H22.2441ZM14.4316 3.78806L22.2441 11.4711H14.4316V3.78806ZM5.05664 9.93449H9.74414V13.0077H5.05664V9.93449ZM5.05664 16.0809H20.6816V19.1541H5.05664V16.0809ZM5.05664 22.2274H20.6816V25.3006H5.05664V22.2274Z" fill="black"/>
</svg>
