<svg width="26" height="34" viewBox="0 0 26 34" fill="none" xmlns="http://www.w3.org/2000/svg">
<path d="M6.08344 7.95696C6.08344 5.96423 6.83599 4.05311 8.17554 2.64404C9.51509 1.23497 11.3319 0.443359 13.2263 0.443359C15.1207 0.443359 16.9375 1.23497 18.2771 2.64404C19.6166 4.05311 20.3692 5.96423 20.3692 7.95696C20.3692 9.94969 19.6166 11.8608 18.2771 13.2699C16.9375 14.6789 15.1207 15.4706 13.2263 15.4706C11.3319 15.4706 9.51509 14.6789 8.17554 13.2699C6.83599 11.8608 6.08344 9.94969 6.08344 7.95696ZM4.40058 19.4858C6.69059 18.0162 9.80488 16.9733 13.2263 16.9733C13.8654 16.9733 14.492 17.0083 15.1063 17.0785C15.3517 17.1062 15.5861 17.2002 15.7866 17.3516C15.9872 17.5029 16.147 17.7063 16.2506 17.9419C16.3542 18.1775 16.398 18.4374 16.3777 18.6961C16.3574 18.9548 16.2738 19.2036 16.1349 19.4182C15.1673 20.9123 14.6515 22.679 14.6549 24.4869C14.6549 25.8694 14.9506 27.1767 15.4763 28.3444C15.5788 28.5718 15.6252 28.8227 15.6115 29.074C15.5977 29.3253 15.5242 29.5689 15.3977 29.7825C15.2711 29.9961 15.0956 30.1728 14.8871 30.2965C14.6787 30.4202 14.4441 30.4868 14.2049 30.4902L13.2263 30.4977C10.042 30.4977 7.03344 30.2874 4.77915 29.6592C3.65772 29.3467 2.602 28.8989 1.802 28.2226C0.954857 27.5073 0.369141 26.508 0.369141 25.2382C0.369141 24.0556 0.880571 22.9496 1.57486 22.0239C2.28057 21.0847 3.25629 20.2206 4.40058 19.4843V19.4858ZM20.3692 24.4869C20.3692 24.0883 20.5197 23.7061 20.7876 23.4243C21.0555 23.1425 21.4189 22.9842 21.7978 22.9842H23.2121C24.0092 22.9842 24.6549 23.6634 24.6549 24.5019V27.6937C24.9272 27.8591 25.1401 28.1144 25.2604 28.42C25.3807 28.7256 25.4019 29.0645 25.3205 29.384C25.2391 29.7035 25.0597 29.9858 24.8103 30.1872C24.5608 30.3886 24.2551 30.4977 23.9406 30.4977H23.2406C22.858 30.4977 22.491 30.3378 22.2204 30.0532C21.9498 29.7686 21.7978 29.3825 21.7978 28.98V25.9896C21.4189 25.9896 21.0555 25.8313 20.7876 25.5495C20.5197 25.2676 20.3692 24.8854 20.3692 24.4869ZM23.2263 18.476C22.8622 18.4764 22.512 18.6231 22.2472 18.886C21.9825 19.1489 21.8231 19.5083 21.8018 19.8906C21.7805 20.273 21.8987 20.6495 22.1324 20.9432C22.3661 21.2369 22.6976 21.4257 23.0592 21.4709L23.2292 21.4814C23.5933 21.481 23.9435 21.3343 24.2083 21.0714C24.4731 20.8085 24.6324 20.4491 24.6537 20.0668C24.6751 19.6844 24.5568 19.3079 24.3231 19.0142C24.0894 18.7205 23.7579 18.5317 23.3963 18.4865L23.2263 18.476Z" fill="black"/>
</svg>
