<svg width="43" height="44" viewBox="0 0 43 44" fill="none" xmlns="http://www.w3.org/2000/svg">
<path fill-rule="evenodd" clip-rule="evenodd" d="M21.489 4.12891C23.8313 4.1289 26.1507 4.59024 28.3148 5.4866C30.4788 6.38296 32.4452 7.69678 34.1014 9.35305C35.7577 11.0093 37.0716 12.9756 37.968 15.1396C38.8643 17.3037 39.3257 19.623 39.3257 21.9654C39.3257 31.8162 31.3399 39.8019 21.489 39.8019C11.6381 39.8019 3.65234 31.8162 3.65234 21.9654C3.65234 12.1146 11.6381 4.12891 21.489 4.12891ZM23.2727 23.7491H19.7053C15.2895 23.7491 11.4984 26.4235 9.86327 30.2411C12.4505 33.869 16.6935 36.2346 21.489 36.2346C26.2845 36.2346 30.5275 33.869 33.1148 30.2409C31.4796 26.4235 27.6885 23.7491 23.2727 23.7491ZM21.489 9.47985C18.5337 9.47985 16.138 11.8756 16.138 14.8308C16.138 17.786 18.5337 20.1817 21.489 20.1817C24.4442 20.1817 26.84 17.786 26.84 14.8308C26.84 11.8756 24.4443 9.47985 21.489 9.47985Z" fill="black"/>
</svg>
