<svg width="256" height="256" viewBox="0 0 256 256" fill="none" xmlns="http://www.w3.org/2000/svg">
<path fill-rule="evenodd" clip-rule="evenodd" d="M53.3339 96C53.3339 76.1972 61.2005 57.2054 75.2032 43.2027C89.206 29.2 108.198 21.3334 128.001 21.3334C147.803 21.3334 166.795 29.2 180.798 43.2027C194.801 57.2054 202.667 76.1972 202.667 96V136.149L222.102 175.019C222.997 176.808 223.419 178.796 223.329 180.794C223.239 182.792 222.64 184.734 221.588 186.436C220.537 188.137 219.068 189.542 217.32 190.515C215.573 191.489 213.606 192 211.606 192H169.323C166.951 201.155 161.605 209.262 154.126 215.05C146.647 220.838 137.458 223.978 128.001 223.978C118.544 223.978 109.354 220.838 101.875 215.05C94.396 209.262 89.0506 201.155 86.6779 192H44.3952C42.395 192 40.4279 191.489 38.6807 190.515C36.9336 189.542 35.4644 188.137 34.4128 186.436C33.3611 184.734 32.7619 182.792 32.672 180.794C32.5821 178.796 33.0046 176.808 33.8992 175.019L53.3339 136.149V96ZM109.526 192C111.398 195.243 114.091 197.936 117.334 199.808C120.577 201.68 124.256 202.666 128.001 202.666C131.745 202.666 135.424 201.68 138.667 199.808C141.91 197.936 144.603 195.243 146.475 192H109.526ZM128.001 42.6667C113.856 42.6667 100.29 48.2857 90.2882 58.2877C80.2863 68.2896 74.6672 81.8552 74.6672 96V136.149C74.667 139.46 73.8965 142.724 72.4166 145.685L59.9366 170.667H196.075L183.595 145.685C182.112 142.725 181.337 139.46 181.334 136.149V96C181.334 81.8552 175.715 68.2896 165.713 58.2877C155.711 48.2857 142.145 42.6667 128.001 42.6667Z" fill="#898989"/>
</svg>
