<svg width="31" height="31" viewBox="0 0 31 31" fill="none" xmlns="http://www.w3.org/2000/svg">
<path d="M16.7904 15.4997H28.4154M28.4154 15.4997L24.1102 10.3331M28.4154 15.4997L24.1102 20.6664M18.082 9.0414V6.68281C18.082 6.32551 18.0079 5.97209 17.8643 5.64489C17.7207 5.3177 17.5108 5.02385 17.2479 4.78191C16.985 4.53997 16.6747 4.35521 16.3367 4.23931C15.9987 4.1234 15.6404 4.07887 15.2843 4.10852L4.95095 4.96877C4.30518 5.02256 3.70321 5.31707 3.26442 5.7939C2.82563 6.27074 2.58206 6.89506 2.58203 7.54306V23.4564C2.58206 24.1044 2.82563 24.7287 3.26442 25.2056C3.70321 25.6824 4.30518 25.9769 4.95095 26.0307L15.2843 26.8922C15.6405 26.9219 15.9989 26.8773 16.337 26.7613C16.6751 26.6454 16.9854 26.4605 17.2484 26.2184C17.5113 25.9763 17.7212 25.6823 17.8647 25.355C18.0082 25.0276 18.0822 24.6741 18.082 24.3166V21.9581" stroke="#D14D4D" stroke-width="2" stroke-linecap="round" stroke-linejoin="round"/>
</svg>
