<svg width="23" height="23" viewBox="0 0 23 23" fill="none" xmlns="http://www.w3.org/2000/svg">
<path d="M11.5 -2.38419e-07C17.8528 -2.38419e-07 23 5.14718 23 11.5C23 17.8528 17.8528 23 11.5 23C5.14718 23 0 17.8528 0 11.5C0 5.14718 5.14718 -2.38419e-07 11.5 -2.38419e-07ZM6.12097 13.5403H11.5V16.828C11.5 17.3242 12.1028 17.5746 12.4506 17.2222L17.7508 11.8942C17.9687 11.6762 17.9687 11.3284 17.7508 11.1105L12.4506 5.78246C12.0982 5.43004 11.5 5.68044 11.5 6.17661V9.45968H6.12097C5.81492 9.45968 5.56452 9.71008 5.56452 10.0161V12.9839C5.56452 13.2899 5.81492 13.5403 6.12097 13.5403Z" fill="#FFC400"/>
</svg>
