<svg width="40" height="40" viewBox="0 0 40 40" fill="none" xmlns="http://www.w3.org/2000/svg">
<path fill-rule="evenodd" clip-rule="evenodd" d="M19.8111 2.17675e-10C22.4127 -1.21951e-05 24.9889 0.512415 27.3925 1.50802C29.7961 2.50363 31.98 3.96292 33.8197 5.80258C35.6593 7.64223 37.1186 9.82623 38.1142 12.2299C39.1098 14.6335 39.6222 17.2097 39.6222 19.8114C39.6222 30.7529 30.7525 39.6228 19.8111 39.6228C8.86977 39.6228 0 30.7529 0 19.8114C0 8.8699 8.86977 2.17675e-10 19.8111 2.17675e-10ZM21.7922 21.7926H17.83C12.9253 21.7926 8.71459 24.7631 6.89844 29.0034C9.77204 33.0329 14.4847 35.6605 19.8111 35.6605C25.1374 35.6605 29.8501 33.0329 32.7238 29.0031C30.9076 24.7631 26.6969 21.7926 21.7922 21.7926ZM19.8111 5.94342C16.5287 5.94342 13.8677 8.6044 13.8677 11.8868C13.8677 15.1693 16.5287 17.8302 19.8111 17.8302C23.0935 17.8302 25.7544 15.1693 25.7544 11.8868C25.7544 8.6044 23.0935 5.94342 19.8111 5.94342Z" fill="#5CA1E8"/>
</svg>
