<svg width="20" height="16" viewBox="0 0 20 16" fill="none" xmlns="http://www.w3.org/2000/svg">
<path d="M10.9102 0.409901C11.1727 0.147441 11.5288 0 11.9 0C12.2712 0 12.6273 0.147441 12.8898 0.409901L19.1898 6.7099C19.4523 6.97244 19.5997 7.32847 19.5997 7.6997C19.5997 8.07093 19.4523 8.42696 19.1898 8.6895L12.8898 14.9895C12.6258 15.2445 12.2721 15.3856 11.905 15.3824C11.538 15.3793 11.1868 15.232 10.9273 14.9724C10.6677 14.7129 10.5204 14.3617 10.5173 13.9947C10.5141 13.6276 10.6552 13.2739 10.9102 13.0099L14.7 9.0997H1.4C1.0287 9.0997 0.672601 8.9522 0.410051 8.68965C0.1475 8.4271 0 8.071 0 7.6997C0 7.3284 0.1475 6.9723 0.410051 6.70975C0.672601 6.4472 1.0287 6.2997 1.4 6.2997H14.7L10.9102 2.3895C10.6477 2.12696 10.5003 1.77093 10.5003 1.3997C10.5003 1.02847 10.6477 0.67244 10.9102 0.409901Z" fill="#959595"/>
</svg>
