<svg width="50" height="50" viewBox="0 0 50 50" fill="none" xmlns="http://www.w3.org/2000/svg">
<rect width="50" height="50" rx="15" fill="#FFC400"/>
<path d="M36.1203 21.4262L17.4537 12.0929C16.717 11.7262 15.8852 11.5957 15.0716 11.7191C14.258 11.8424 13.5023 12.2137 12.9074 12.7823C12.3126 13.3509 11.9076 14.0891 11.7477 14.8963C11.5877 15.7035 11.6806 16.5404 12.0137 17.2929L15.2137 24.4529C15.2863 24.626 15.3237 24.8118 15.3237 24.9995C15.3237 25.1872 15.2863 25.3731 15.2137 25.5462L12.0137 32.7062C11.7426 33.3151 11.628 33.9822 11.6803 34.6467C11.7326 35.3112 11.9501 35.9521 12.3131 36.5111C12.6761 37.0702 13.173 37.5297 13.7588 37.8478C14.3445 38.166 15.0004 38.3327 15.667 38.3329C16.2913 38.3266 16.9063 38.1808 17.467 37.9062L36.1337 28.5729C36.7958 28.2398 37.3524 27.7293 37.7413 27.0983C38.1301 26.4673 38.3361 25.7407 38.3361 24.9995C38.3361 24.2583 38.1301 23.5317 37.7413 22.9007C37.3524 22.2698 36.7958 21.7593 36.1337 21.4262H36.1203ZM34.9337 26.1862L16.267 35.5195C16.0219 35.6372 15.7466 35.6772 15.4782 35.634C15.2097 35.5908 14.9609 35.4666 14.765 35.278C14.5692 35.0894 14.4356 34.8454 14.3824 34.5788C14.3291 34.3121 14.3586 34.0356 14.467 33.7862L17.6537 26.6262C17.6949 26.5306 17.7305 26.4326 17.7603 26.3329H26.947C27.3006 26.3329 27.6398 26.1924 27.8898 25.9423C28.1399 25.6923 28.2803 25.3531 28.2803 24.9995C28.2803 24.6459 28.1399 24.3068 27.8898 24.0567C27.6398 23.8067 27.3006 23.6662 26.947 23.6662H17.7603C17.7305 23.5664 17.6949 23.4685 17.6537 23.3729L14.467 16.2129C14.3586 15.9635 14.3291 15.6869 14.3824 15.4203C14.4356 15.1536 14.5692 14.9097 14.765 14.7211C14.9609 14.5324 15.2097 14.4082 15.4782 14.3651C15.7466 14.3219 16.0219 14.3618 16.267 14.4795L34.9337 23.8129C35.1521 23.9247 35.3354 24.0947 35.4633 24.3041C35.5913 24.5135 35.659 24.7541 35.659 24.9995C35.659 25.2449 35.5913 25.4856 35.4633 25.6949C35.3354 25.9043 35.1521 26.0743 34.9337 26.1862Z" fill="white"/>
</svg>
