<svg width="198" height="65" viewBox="0 0 198 65" fill="none" xmlns="http://www.w3.org/2000/svg">
<path d="M44.5171 40.4004C44.5171 44.2803 43.8374 47.6787 42.478 50.5957C41.147 53.4844 39.3062 55.8916 36.9556 57.8174C34.6333 59.7432 31.9004 61.1875 28.7568 62.1504C25.6416 63.1133 22.2856 63.5947 18.689 63.5947C17.3013 63.5947 15.772 63.4106 14.1011 63.0425C12.4585 62.6743 10.7876 62.2212 9.08838 61.6831C7.38916 61.1167 5.74658 60.522 4.16064 59.8989C2.60303 59.2476 1.21533 58.6387 -0.00244141 58.0723L1.8667 40.5703C4.27393 42.0146 6.93604 43.1191 9.85303 43.8838C12.7983 44.6201 15.687 44.9883 18.519 44.9883C19.0571 44.9883 19.7085 44.9741 20.4731 44.9458C21.2378 44.8892 21.96 44.7617 22.6396 44.5635C23.3477 44.3369 23.9424 44.0112 24.4238 43.5864C24.9053 43.1616 25.146 42.5527 25.146 41.7598C25.146 41.2217 24.9761 40.7686 24.6362 40.4004C24.2964 40.0039 23.8574 39.6924 23.3193 39.4658C22.7812 39.2109 22.1724 39.0269 21.4927 38.9136C20.813 38.772 20.1475 38.6729 19.4961 38.6162C18.8447 38.5596 18.2358 38.5312 17.6694 38.5312C17.103 38.5312 16.6499 38.5312 16.3101 38.5312C13.8745 38.5312 11.6514 38.1064 9.64062 37.2568C7.6582 36.4072 5.94482 35.2319 4.50049 33.731C3.08447 32.2017 1.97998 30.4033 1.18701 28.3359C0.394043 26.2402 -0.00244141 23.9746 -0.00244141 21.5391C-0.00244141 18.1973 0.663086 15.2095 1.99414 12.5757C3.35352 9.91357 5.15186 7.66211 7.38916 5.82129C9.65479 3.95215 12.2461 2.52197 15.1631 1.53076C18.0801 0.539551 21.0962 0.0439453 24.2114 0.0439453C25.5991 0.0439453 27.0293 0.100586 28.502 0.213867C29.9746 0.298828 31.4331 0.46875 32.8774 0.723633C34.3501 0.978516 35.7803 1.3042 37.168 1.70068C38.5557 2.09717 39.8726 2.59277 41.1187 3.1875L39.5044 20.4346C37.5786 19.7832 35.5537 19.2451 33.4297 18.8203C31.334 18.3672 29.2808 18.1406 27.27 18.1406C26.9019 18.1406 26.4204 18.1548 25.8257 18.1831C25.2593 18.1831 24.6504 18.2256 23.999 18.3105C23.376 18.3672 22.7388 18.4663 22.0874 18.6079C21.436 18.7495 20.8555 18.9478 20.3457 19.2026C19.8359 19.4292 19.4253 19.7407 19.1138 20.1372C18.8022 20.5337 18.6606 21.001 18.689 21.5391C18.7173 22.1621 18.9438 22.6719 19.3687 23.0684C19.8218 23.4365 20.3882 23.7339 21.0679 23.9604C21.7759 24.1587 22.5405 24.3003 23.3618 24.3853C24.2114 24.4702 25.0469 24.5269 25.8682 24.5552C26.6895 24.5552 27.4541 24.5552 28.1621 24.5552C28.8701 24.5269 29.4507 24.541 29.9038 24.5977C32.1694 24.7393 34.2085 25.2207 36.021 26.042C37.8335 26.8633 39.3628 27.9536 40.6089 29.313C41.8833 30.6724 42.8462 32.3008 43.4976 34.1982C44.1772 36.0674 44.5171 38.1348 44.5171 40.4004ZM99.7417 33.0088C99.7417 35.5859 99.4443 38.0781 98.8496 40.4854C98.2549 42.8643 97.3911 45.1016 96.2583 47.1973C95.1538 49.293 93.7944 51.2188 92.1802 52.9746C90.5942 54.7021 88.7959 56.189 86.7852 57.4351C84.8027 58.6812 82.6362 59.6582 80.2856 60.3662C77.9351 61.0459 75.4429 61.3857 72.8091 61.3857C70.2603 61.3857 67.8247 61.0601 65.5024 60.4087C63.2085 59.7573 61.0562 58.8511 59.0454 57.6899C57.0347 56.5005 55.208 55.0845 53.5654 53.4419C51.9512 51.771 50.5635 49.9302 49.4023 47.9194C48.2695 45.8804 47.3774 43.6997 46.7261 41.3774C46.103 39.0552 45.7915 36.6338 45.7915 34.1133C45.7915 31.6494 46.0889 29.2422 46.6836 26.8916C47.2783 24.5127 48.1279 22.2754 49.2324 20.1797C50.3652 18.084 51.7246 16.1582 53.3105 14.4023C54.8965 12.6465 56.6665 11.1313 58.6206 9.85693C60.603 8.58252 62.7412 7.59131 65.0352 6.8833C67.3291 6.17529 69.7505 5.82129 72.2993 5.82129C76.4058 5.82129 80.144 6.4585 83.5142 7.73291C86.9126 9.00732 89.8013 10.834 92.1802 13.2129C94.5874 15.5635 96.4424 18.4238 97.7451 21.7939C99.0762 25.1357 99.7417 28.874 99.7417 33.0088ZM80.8804 34.1133C80.8804 32.8955 80.6963 31.7202 80.3281 30.5874C79.9883 29.4263 79.4785 28.4067 78.7988 27.5288C78.1191 26.6226 77.2695 25.9004 76.25 25.3623C75.2588 24.7959 74.1118 24.5127 72.8091 24.5127C71.478 24.5127 70.2886 24.7534 69.2407 25.2349C68.1929 25.7163 67.2866 26.3818 66.522 27.2314C65.7856 28.0527 65.2192 29.0298 64.8228 30.1626C64.4263 31.2671 64.228 32.4424 64.228 33.6885C64.228 34.8779 64.3979 36.0674 64.7378 37.2568C65.0776 38.4463 65.5874 39.5225 66.2671 40.4854C66.9468 41.4482 67.7822 42.2271 68.7734 42.8218C69.793 43.4165 70.9683 43.7139 72.2993 43.7139C73.6304 43.7139 74.8198 43.459 75.8677 42.9492C76.9438 42.4111 77.8501 41.7031 78.5864 40.8252C79.3228 39.9189 79.8892 38.8853 80.2856 37.7241C80.6821 36.563 80.8804 35.3594 80.8804 34.1133ZM153.522 15.7617C153.522 17.8574 153.423 20.1655 153.225 22.686C153.026 25.2065 152.701 27.812 152.248 30.5024C151.794 33.1929 151.2 35.9258 150.463 38.7012C149.755 41.4482 148.863 44.0962 147.787 46.645C146.711 49.1938 145.451 51.5869 144.006 53.8242C142.59 56.0332 140.948 57.9731 139.079 59.644C137.238 61.2866 135.17 62.5752 132.876 63.5098C130.583 64.4727 128.034 64.9541 125.23 64.9541C121.945 64.9541 119.084 64.416 116.649 63.3398C114.242 62.292 112.174 60.876 110.447 59.0918C108.719 57.2793 107.303 55.1836 106.199 52.8047C105.094 50.3975 104.23 47.8628 103.607 45.2007C102.984 42.5103 102.545 39.7773 102.291 37.002C102.064 34.1982 101.951 31.5078 101.951 28.9307C101.951 24.9658 102.149 21.0151 102.545 17.0786C102.942 13.1138 103.508 9.16309 104.245 5.22656L124.125 5.99121C123.361 10.4375 122.695 14.9121 122.129 19.415C121.591 23.8896 121.322 28.3926 121.322 32.9238C121.322 33.4053 121.336 34.1274 121.364 35.0903C121.421 36.0249 121.506 37.0869 121.619 38.2764C121.732 39.4375 121.888 40.6411 122.086 41.8872C122.313 43.105 122.61 44.2236 122.979 45.2432C123.347 46.2627 123.786 47.0981 124.295 47.7495C124.833 48.4009 125.457 48.7266 126.165 48.7266C126.986 48.7266 127.722 48.3442 128.374 47.5796C129.025 46.7866 129.591 45.7388 130.073 44.436C130.583 43.1333 131.021 41.6323 131.39 39.9331C131.758 38.2339 132.069 36.4639 132.324 34.623C132.579 32.7822 132.777 30.9414 132.919 29.1006C133.089 27.2598 133.216 25.5464 133.301 23.9604C133.415 22.3745 133.485 20.9727 133.514 19.7549C133.542 18.5371 133.556 17.6309 133.556 17.0361C133.556 14.8271 133.514 12.6323 133.429 10.4517C133.372 8.24268 133.273 6.04785 133.131 3.86719H153.012C153.352 7.77539 153.522 11.7402 153.522 15.7617ZM197.149 1.74316C196.979 4.40527 196.824 7.03906 196.682 9.64453C196.541 12.25 196.356 14.8838 196.13 17.5459L178.118 18.4805V23.833H193.751L192.901 37.002L178.033 37.4268L178.118 62.5752L156.623 63L157.982 1.74316H197.149Z" fill="#2969E0"/>
</svg>
