<svg width="64" height="68" viewBox="0 0 64 68" fill="none" xmlns="http://www.w3.org/2000/svg">
<path fill-rule="evenodd" clip-rule="evenodd" d="M32 0C36.4919 0 40.2674 8.13144 40.2674 8.13144C40.3014 8.11257 48.0301 3.81473 51.6562 6.4932C55.2792 9.16944 53.6537 17.9583 53.6437 18.012C53.6933 18.0185 62.4196 19.1622 63.804 23.4932C65.1921 27.8367 58.7526 34 58.7526 34C58.7526 34 65.1921 40.1633 63.804 44.5068C62.4196 48.8378 53.6934 49.9815 53.6437 49.988C53.6537 50.0415 55.2792 58.8305 51.6562 61.5068C48.0301 64.1853 40.3012 59.8873 40.2674 59.8686C40.2674 59.8686 36.4919 68 32 68C27.5081 67.9998 23.7332 59.8686 23.7332 59.8686C23.7332 59.8686 15.9786 64.1909 12.3444 61.5068C8.72021 58.8296 10.348 50.0357 10.3569 49.988C10.3569 49.988 1.58425 48.8502 0.196005 44.5068C-1.18892 40.1732 5.21816 34.028 5.24739 34C5.21816 33.972 -1.18892 27.8268 0.196005 23.4932C1.58426 19.1498 10.3569 18.012 10.3569 18.012C10.348 17.964 8.72027 9.17032 12.3444 6.4932C15.9786 3.80911 23.7332 8.13144 23.7332 8.13144C23.7332 8.13144 27.5081 0.000228073 32 0ZM41.4418 20.2798C40.9282 20.3169 40.4279 20.4639 39.9742 20.7114C39.5206 20.9589 39.1239 21.3016 38.8096 21.7162L29.5422 33.923C27.4893 33.0436 24.3765 32.9615 21.7888 35.6641C20.223 37.297 19.2614 39.2839 18.9483 41.1652C18.644 42.9941 18.9215 45.0187 20.2696 46.3522C21.6178 47.6873 23.6142 47.9163 25.4059 47.5588C27.2474 47.1911 29.1742 46.1616 30.7401 44.5287C33.3261 41.8276 33.1648 38.6646 32.2462 36.6011L44.0041 26.8607C44.4033 26.5303 44.7295 26.1176 44.9609 25.6501C45.1923 25.1825 45.324 24.6702 45.3469 24.1473C45.3699 23.6244 45.2837 23.102 45.0941 22.6153C44.9046 22.1287 44.6158 21.6882 44.247 21.323C43.8783 20.9579 43.4378 20.6761 42.9545 20.4963C42.471 20.3165 41.9553 20.2427 41.4418 20.2798Z" fill="#3E78E3"/>
</svg>
