<svg width="39" height="37" viewBox="0 0 39 37" fill="none" xmlns="http://www.w3.org/2000/svg">
<path d="M17.2656 1.16369C17.4719 0.809615 17.7675 0.51583 18.1228 0.311642C18.4781 0.107454 18.8808 0 19.2906 0C19.7004 0 20.103 0.107454 20.4584 0.311642C20.8137 0.51583 21.1093 0.809615 21.3156 1.16369L26.5562 10.1599L36.7337 12.3649C37.1341 12.4519 37.5046 12.6423 37.8084 12.9172C38.1122 13.192 38.3387 13.5417 38.4652 13.9314C38.5917 14.321 38.6139 14.737 38.5295 15.1379C38.4452 15.5388 38.2572 15.9106 37.9843 16.2162L31.0468 23.9806L32.0968 34.3399C32.1383 34.7479 32.072 35.1595 31.9045 35.5338C31.7371 35.9081 31.4744 36.2319 31.1427 36.4729C30.811 36.7139 30.4219 36.8636 30.0142 36.9072C29.6065 36.9508 29.1945 36.8866 28.8193 36.7212L19.2906 32.5212L9.76184 36.7212C9.38669 36.8866 8.9747 36.9508 8.56701 36.9072C8.15931 36.8636 7.77018 36.7139 7.43848 36.4729C7.10677 36.2319 6.84408 35.9081 6.67666 35.5338C6.50923 35.1595 6.44292 34.7479 6.48434 34.3399L7.53434 23.9806L0.596841 16.2181C0.323518 15.9125 0.135132 15.5406 0.0504918 15.1394C-0.0341488 14.7383 -0.0120834 14.3219 0.114485 13.932C0.241054 13.542 0.467698 13.1921 0.77179 12.9171C1.07588 12.6422 1.44678 12.4518 1.84747 12.3649L12.025 10.1599L17.2656 1.16369Z" fill="#5CA1E8"/>
</svg>
