<svg width="117" height="117" viewBox="0 0 117 117" fill="none" xmlns="http://www.w3.org/2000/svg">
<path fill-rule="evenodd" clip-rule="evenodd" d="M58.125 116.25C65.7581 116.25 73.3164 114.747 80.3685 111.826C87.4205 108.904 93.8282 104.623 99.2256 99.2256C104.623 93.8282 108.904 87.4205 111.826 80.3685C114.747 73.3164 116.25 65.7581 116.25 58.125C116.25 50.4919 114.747 42.9336 111.826 35.8815C108.904 28.8295 104.623 22.4218 99.2256 17.0244C93.8282 11.627 87.4205 7.34556 80.3685 4.4245C73.3164 1.50345 65.7581 -1.13742e-07 58.125 0C42.7093 2.29712e-07 27.925 6.12387 17.0244 17.0244C6.12387 27.925 0 42.7093 0 58.125C0 73.5407 6.12387 88.325 17.0244 99.2256C27.925 110.126 42.7093 116.25 58.125 116.25ZM56.6267 81.6333L95 35.8815L84.5 27.5L51.2275 67.9352L27.7256 46L20 55.5L47.1006 82.066L52.0994 87.0648L56.6267 81.6333Z" fill="#FFE58F"/>
</svg>
