<svg width="110" height="110" viewBox="0 0 110 110" fill="none" xmlns="http://www.w3.org/2000/svg">
<path fill-rule="evenodd" clip-rule="evenodd" d="M55 110C62.2227 110 69.3747 108.577 76.0476 105.813C82.7205 103.049 88.7836 98.9981 93.8909 93.8909C98.9981 88.7836 103.049 82.7205 105.813 76.0476C108.577 69.3747 110 62.2227 110 55C110 47.7773 108.577 40.6253 105.813 33.9524C103.049 27.2795 98.9981 21.2163 93.8909 16.1091C88.7836 11.0019 82.7205 6.95063 76.0476 4.18663C69.3747 1.42262 62.2227 -1.07627e-07 55 0C40.4131 2.17362e-07 26.4236 5.79463 16.1091 16.1091C5.79463 26.4236 0 40.4131 0 55C0 69.5869 5.79463 83.5764 16.1091 93.8909C26.4236 104.205 40.4131 110 55 110ZM53.5822 77.2444L84.1378 40.5778L74.7511 32.7556L48.4733 64.2828L34.8761 50.6794L26.235 59.3206L44.5683 77.6539L49.2983 82.3839L53.5822 77.2444Z" fill="#FFE58F"/>
</svg>
