<svg width="307" height="307" viewBox="0 0 307 307" fill="none" xmlns="http://www.w3.org/2000/svg">
<circle cx="153.5" cy="153.5" r="153.5" fill="#E85C5C"/>
<path d="M157.563 233.32C157.563 233.32 142.823 233.32 119.601 233.32C111.35 233.32 122.444 212.136 116.209 210.47C109.973 208.804 77.1998 193.163 64.5682 170.366C51.3657 146.54 37.6824 98.2403 64.5682 98.2403C124.506 98.2403 179.346 98.2403 243.049 98.2403C270.039 98.2403 254.435 146.502 241.352 170.366C227.259 196.073 201.522 206.661 195.931 210.47C190.341 214.278 198.453 233.32 191.973 233.32C174.342 233.32 157.563 233.32 157.563 233.32Z" fill="white"/>
</svg>
