<svg width="27" height="31" viewBox="0 0 27 31" fill="none" xmlns="http://www.w3.org/2000/svg">
<g clip-path="url(#clip0_244_884)">
<path d="M8.01839 1.04974C8.33865 0.403292 8.99696 0 9.71458 0H16.8552C17.5728 0 18.2312 0.403292 18.5514 1.04974L18.9784 1.89784H24.672C25.7217 1.89784 26.5698 2.74594 26.5698 3.79569C26.5698 4.84543 25.7217 5.69353 24.672 5.69353H1.89784C0.848099 5.69353 0 4.84543 0 3.79569C0 2.74594 0.848099 1.89784 1.89784 1.89784H7.59137L8.01839 1.04974ZM1.89784 7.59137H24.672V26.5698C24.672 28.6634 22.9698 30.3655 20.8763 30.3655H5.69353C3.59997 30.3655 1.89784 28.6634 1.89784 26.5698V7.59137ZM7.59137 11.3871C7.06947 11.3871 6.64245 11.8141 6.64245 12.336V25.6209C6.64245 26.1428 7.06947 26.5698 7.59137 26.5698C8.11328 26.5698 8.54029 26.1428 8.54029 25.6209V12.336C8.54029 11.8141 8.11328 11.3871 7.59137 11.3871ZM13.2849 11.3871C12.763 11.3871 12.336 11.8141 12.336 12.336V25.6209C12.336 26.1428 12.763 26.5698 13.2849 26.5698C13.8068 26.5698 14.2338 26.1428 14.2338 25.6209V12.336C14.2338 11.8141 13.8068 11.3871 13.2849 11.3871ZM18.9784 11.3871C18.4565 11.3871 18.0295 11.8141 18.0295 12.336V25.6209C18.0295 26.1428 18.4565 26.5698 18.9784 26.5698C19.5003 26.5698 19.9274 26.1428 19.9274 25.6209V12.336C19.9274 11.8141 19.5003 11.3871 18.9784 11.3871Z" fill="#FF5050"/>
</g>
<defs>
<clipPath id="clip0_244_884">
<rect width="26.5698" height="30.3655" fill="white"/>
</clipPath>
</defs>
</svg>
