<svg width="191" height="148" viewBox="0 0 191 148" fill="none" xmlns="http://www.w3.org/2000/svg">
<path d="M87.3397 15C91.1887 8.33334 100.811 8.33334 104.66 15L170.478 129C174.327 135.667 169.516 144 161.818 144H30.1821C22.4841 144 17.6728 135.667 21.5218 129L87.3397 15Z" fill="#FFE58F"/>
<path d="M98.3359 92.8516H92.3594L91.7266 69.0625H98.9922L98.3359 92.8516ZM95.3594 103.422C94.6562 103.422 94 103.242 93.3906 102.883C92.7812 102.508 92.2969 102.023 91.9375 101.43C91.5938 100.82 91.4219 100.164 91.4219 99.4609C91.4219 98.7734 91.5938 98.1328 91.9375 97.5391C92.2969 96.9297 92.7812 96.4531 93.3906 96.1094C94 95.7656 94.6562 95.5938 95.3594 95.5938C96.0469 95.5938 96.6875 95.7656 97.2812 96.1094C97.8906 96.4531 98.375 96.9297 98.7344 97.5391C99.1094 98.1328 99.2969 98.7734 99.2969 99.4609C99.2969 100.164 99.1094 100.82 98.7344 101.43C98.375 102.023 97.8906 102.508 97.2812 102.883C96.6875 103.242 96.0469 103.422 95.3594 103.422Z" fill="white"/>
</svg>
