<svg width="191" height="148" viewBox="0 0 191 148" fill="none" xmlns="http://www.w3.org/2000/svg">
<path d="M87.3397 15C91.1887 8.33334 100.811 8.33334 104.66 15L170.478 129C174.327 135.667 169.516 144 161.818 144H30.1821C22.4841 144 17.6728 135.667 21.5218 129L87.3397 15Z" fill="#E85C5C"/>
<path d="M101.533 102.857H89.082L87.7637 53.2969H102.9L101.533 102.857ZM95.332 124.879C93.8672 124.879 92.5 124.505 91.2305 123.756C89.9609 122.975 88.9518 121.965 88.2031 120.729C87.487 119.459 87.1289 118.092 87.1289 116.627C87.1289 115.195 87.487 113.86 88.2031 112.623C88.9518 111.354 89.9609 110.361 91.2305 109.645C92.5 108.928 93.8672 108.57 95.332 108.57C96.7643 108.57 98.099 108.928 99.3359 109.645C100.605 110.361 101.615 111.354 102.363 112.623C103.145 113.86 103.535 115.195 103.535 116.627C103.535 118.092 103.145 119.459 102.363 120.729C101.615 121.965 100.605 122.975 99.3359 123.756C98.099 124.505 96.7643 124.879 95.332 124.879Z" fill="white"/>
</svg>
