<svg width="192" height="192" viewBox="0 0 192 192" fill="none" xmlns="http://www.w3.org/2000/svg">
<path d="M87.3397 15C91.1887 8.33334 100.811 8.33334 104.66 15L170.478 129C174.327 135.667 169.516 144 161.818 144H30.1821C22.4841 144 17.6728 135.667 21.5218 129L87.3397 15Z" fill="#FFE58F"/>
<path d="M102.687 102.743H88.9902L87.54 48.2266H104.19L102.687 102.743ZM95.8652 126.967C94.2539 126.967 92.75 126.555 91.3535 125.731C89.957 124.872 88.847 123.762 88.0234 122.401C87.2357 121.005 86.8418 119.501 86.8418 117.89C86.8418 116.314 87.2357 114.846 88.0234 113.485C88.847 112.089 89.957 110.997 91.3535 110.209C92.75 109.421 94.2539 109.027 95.8652 109.027C97.4408 109.027 98.9089 109.421 100.27 110.209C101.666 110.997 102.776 112.089 103.6 113.485C104.459 114.846 104.889 116.314 104.889 117.89C104.889 119.501 104.459 121.005 103.6 122.401C102.776 123.762 101.666 124.872 100.27 125.731C98.9089 126.555 97.4408 126.967 95.8652 126.967Z" fill="white"/>
</svg>
